<svg xmlns="http://www.w3.org/2000/svg" viewBox="0 0 231 231">
  <circle cx="115.5" cy="115.5" r="115.5" fill="#191414"/>
  <path fill="#1DB954" d="M115.5 14.5C59.7 14.5 14.5 59.7 14.5 115.5S59.7 216.5 115.5 216.5 216.5 171.3 216.5 115.5 171.3 14.5 115.5 14.5zm44.8 144.3c-1.8 2.9-5.6 3.8-8.5 2-23.3-14.2-52.6-17.5-87.1-9.6-3.3.8-6.6-1.3-7.4-4.6-.8-3.3 1.3-6.6 4.6-7.4 37.8-8.6 70.2-4.9 96.4 11.1 2.9 1.8 3.8 5.6 2 8.5zm11.9-26.5c-2.2 3.6-6.9 4.7-10.5 2.5-26.6-16.4-67.2-21.2-98.7-11.6-3.9 1.2-8.1-.9-9.3-4.8-1.2-3.9.9-8.1 4.8-9.3 36-10.9 80.8-5.6 111.4 13.2 3.5 2.2 4.7 6.9 2.5 10.5l-.2-.5zm1-27.7C138 88.1 84.2 86.4 52.1 95.9c-4.7 1.4-9.7-1.3-11.1-6-.1-.2-.1-.4-.2-.6-1.4-4.7 1.3-9.7 6-11.1 36.7-11.1 97.7-9 136.4 13.2 4.2 2.5 5.6 7.9 3.1 12.2-2.5 4.2-7.9 5.6-12.2 3.1l-2.8-.6z"/>
</svg>
